<svg version="1.1" xmlns="http://www.w3.org/2000/svg" xmlns:xlink="http://www.w3.org/1999/xlink" width="1661" height="703" viewBox="0,0,1661,703"><g transform="translate(265.44655,-16.18321) scale(1.501,1.501)"><g id="wick_project_bg" fill-opacity="0" fill="#ffffff" fill-rule="nonzero" stroke="none" stroke-width="1" stroke-linecap="butt" stroke-linejoin="miter" stroke-miterlimit="10" stroke-dasharray="" stroke-dashoffset="0" font-family="none" font-weight="none" font-size="none" text-anchor="none" style="mix-blend-mode: normal"><rect x="0" y="0" width="720" height="480"/></g><g data-paper-data="{&quot;wickUUID&quot;:&quot;25f05f8d-7a36-491d-8796-2708c4dbca31&quot;,&quot;wickType&quot;:&quot;clipsandpaths&quot;}" fill="none" fill-rule="nonzero" stroke="none" stroke-width="none" stroke-linecap="round" stroke-linejoin="miter" stroke-miterlimit="10" stroke-dasharray="" stroke-dashoffset="0" font-family="none" font-weight="none" font-size="none" text-anchor="none" style="mix-blend-mode: normal"><path d="M41.73365,404.54605c-15.80394,0 -28.61553,-12.8116 -28.61553,-28.61554v-267.20555c0,-15.80394 12.81159,-28.61554 28.61553,-28.61554h267.20554c15.80394,0 28.61554,12.8116 28.61554,28.61554v267.20555c0,15.80394 -12.8116,28.61554 -28.61554,28.61554z" data-paper-data="{&quot;wickUUID&quot;:&quot;fc6f3c43-9b06-4f13-af28-3f07b8bcbc10&quot;,&quot;wickType&quot;:&quot;path&quot;}" fill="#00ffff" stroke="#000000" stroke-width="0"/><path d="M657.67441,260.75395c0,-11.23053 9.10414,-20.33469 20.33467,-20.33469c11.23053,0 20.33466,9.10416 20.33466,20.33469c0,11.23053 -9.10413,20.33466 -20.33466,20.33466c-11.23053,0 -20.33467,-9.10413 -20.33467,-20.33466z" data-paper-data="{&quot;wickUUID&quot;:&quot;fc4c703e-9cbd-4be9-b2c4-d3510fbabcdd&quot;,&quot;wickType&quot;:&quot;path&quot;}" fill="#000000" stroke="#000000" stroke-width="9"/><line x1="523.77996" y1="378.61423" x2="666.6818" y2="378.61423" data-paper-data="{&quot;wickUUID&quot;:&quot;a94b0ba7-b44d-47b9-9876-eb5ba986e906&quot;,&quot;wickType&quot;:&quot;path&quot;}" fill="none" stroke="#000000" stroke-width="9"/><path d="M494.22399,171.79183c-9.87745,0 -17.8847,-8.00727 -17.8847,-17.88472v-31.06215c0,-9.87745 8.00725,-17.88471 17.8847,-17.88471h31.06215c9.87745,0 17.88472,8.00726 17.88472,17.88471v31.06215c0,9.87745 -8.00727,17.88472 -17.88472,17.88472z" data-paper-data="{&quot;wickUUID&quot;:&quot;8978c04b-50b5-462b-b37c-6b5e4511e60c&quot;,&quot;wickType&quot;:&quot;path&quot;}" fill="#99ffff" stroke="#99ffff" stroke-width="0"/><path d="M493.85055,294.3876c-9.87745,0 -17.88472,-8.00726 -17.88472,-17.88471v-31.06216c0,-9.87745 8.00727,-17.8847 17.88472,-17.8847h31.06215c9.87745,0 17.88471,8.00725 17.88471,17.8847v31.06216c0,9.87745 -8.00726,17.88471 -17.88471,17.88471z" data-paper-data="{&quot;wickUUID&quot;:&quot;d97aa1b5-4c6e-4aa6-93df-87fe2e81e1b4&quot;,&quot;wickType&quot;:&quot;path&quot;}" fill="#99ffff" stroke="#99ffff" stroke-width="0"/><path d="M658.6998,133.2681c0,-11.23053 9.10413,-20.33468 20.33466,-20.33468c11.23053,0 20.33468,9.10415 20.33468,20.33468c0,11.23053 -9.10415,20.33467 -20.33468,20.33467c-11.23053,0 -20.33466,-9.10414 -20.33466,-20.33467z" data-paper-data="{&quot;wickUUID&quot;:&quot;ecfe77a7-2fda-46f2-aa12-1b8d4c217b7e&quot;,&quot;wickType&quot;:&quot;path&quot;}" fill="#000000" stroke="#000000" stroke-width="9"/></g><g fill="none" fill-rule="nonzero" stroke="none" stroke-width="1" stroke-linecap="butt" stroke-linejoin="miter" stroke-miterlimit="10" stroke-dasharray="" stroke-dashoffset="0" font-family="sans-serif" font-weight="normal" font-size="12" text-anchor="start" style="mix-blend-mode: normal"/><g id="wick_project_gui" fill="none" fill-rule="nonzero" stroke="none" stroke-width="1" stroke-linecap="butt" stroke-linejoin="miter" stroke-miterlimit="10" stroke-dasharray="" stroke-dashoffset="0" font-family="sans-serif" font-weight="normal" font-size="12" text-anchor="start" style="mix-blend-mode: normal"/></g></svg>